<?xml version="1.0" encoding="UTF-8"?>
<svg xmlns="http://www.w3.org/2000/svg" xmlns:xlink="http://www.w3.org/1999/xlink" viewBox="0 0 200.1 24.9">
  <defs>
    <style>
      .cls-1 {
        fill: #fac600;
      }

      .cls-1, .cls-2, .cls-3, .cls-4, .cls-5 {
        stroke-width: 0px;
      }

      .cls-2 {
        fill: url(#Degradado_sin_nombre_7-3);
      }

      .cls-3 {
        fill: url(#Degradado_sin_nombre_7-2);
      }

      .cls-6 {
        isolation: isolate;
      }

      .cls-7 {
        mix-blend-mode: soft-light;
      }

      .cls-4 {
        fill: url(#Degradado_sin_nombre_7-4);
      }

      .cls-5 {
        fill: url(#Degradado_sin_nombre_7);
      }

      .cls-8 {
        fill: none;
        stroke: #fac600;
        stroke-miterlimit: 10;
        stroke-width: .9px;
      }
    </style>
    <linearGradient id="Degradado_sin_nombre_7" data-name="Degradado sin nombre 7" x1="58" y1="17.4" x2="73.8" y2="17.4" gradientUnits="userSpaceOnUse">
      <stop offset="0" stop-color="#fff"/>
      <stop offset="1" stop-color="#000"/>
    </linearGradient>
    <linearGradient id="Degradado_sin_nombre_7-2" data-name="Degradado sin nombre 7" x1="81.3" x2="97.2" xlink:href="#Degradado_sin_nombre_7"/>
    <linearGradient id="Degradado_sin_nombre_7-3" data-name="Degradado sin nombre 7" x1="104.6" x2="120.5" xlink:href="#Degradado_sin_nombre_7"/>
    <linearGradient id="Degradado_sin_nombre_7-4" data-name="Degradado sin nombre 7" x1="126.3" x2="142.2" xlink:href="#Degradado_sin_nombre_7"/>
  </defs>
  <g class="cls-6">
    <g id="Layer_2" data-name="Layer 2">
      <g id="Objects">
        <g>
          <g>
            <path class="cls-1" d="m14.8,3.7c0,2-1.7,3.7-3.7,3.7S0,3.7,0,3.7C0,3.7,9.1,0,11.1,0s3.7,1.7,3.7,3.7Z"/>
            <path class="cls-1" d="m185.3,3.7c0-2,1.7-3.7,3.7-3.7s11.1,3.7,11.1,3.7c0,0-9.1,3.7-11.1,3.7s-3.7-1.7-3.7-3.7Z"/>
            <line class="cls-8" x1="11.5" y1="3.7" x2="193.6" y2="3.7"/>
          </g>
          <g>
            <polygon class="cls-1" points="65.9 9.8 67.8 15.6 73.8 15.6 68.9 19.1 70.8 24.9 65.9 21.3 61 24.9 62.9 19.1 58 15.6 64 15.6 65.9 9.8"/>
            <polygon class="cls-1" points="89.2 9.8 91.1 15.6 97.2 15.6 92.3 19.1 94.1 24.9 89.2 21.3 84.3 24.9 86.2 19.1 81.3 15.6 87.4 15.6 89.2 9.8"/>
            <polygon class="cls-1" points="112.6 9.8 114.4 15.6 120.5 15.6 115.6 19.1 117.5 24.9 112.6 21.3 107.7 24.9 109.5 19.1 104.6 15.6 110.7 15.6 112.6 9.8"/>
            <polygon class="cls-1" points="134.2 9.8 136.1 15.6 142.2 15.6 137.3 19.1 139.1 24.9 134.2 21.3 129.3 24.9 131.2 19.1 126.3 15.6 132.4 15.6 134.2 9.8"/>
          </g>
          <g class="cls-7">
            <polygon class="cls-5" points="65.9 9.8 67.8 15.6 73.8 15.6 68.9 19.1 70.8 24.9 65.9 21.3 61 24.9 62.9 19.1 58 15.6 64 15.6 65.9 9.8"/>
            <polygon class="cls-3" points="89.2 9.8 91.1 15.6 97.2 15.6 92.3 19.1 94.1 24.9 89.2 21.3 84.3 24.9 86.2 19.1 81.3 15.6 87.4 15.6 89.2 9.8"/>
            <polygon class="cls-2" points="112.6 9.8 114.4 15.6 120.5 15.6 115.6 19.1 117.5 24.9 112.6 21.3 107.7 24.9 109.5 19.1 104.6 15.6 110.7 15.6 112.6 9.8"/>
            <polygon class="cls-4" points="134.2 9.8 136.1 15.6 142.2 15.6 137.3 19.1 139.1 24.9 134.2 21.3 129.3 24.9 131.2 19.1 126.3 15.6 132.4 15.6 134.2 9.8"/>
          </g>
        </g>
      </g>
    </g>
  </g>
</svg>